<svg xmlns="http://www.w3.org/2000/svg" viewBox="0 0 48 48" width="48" height="48">
  <g stroke="#2B2E33" stroke-width="2.25" stroke-linecap="round">
    <line x1="24" y1="17" x2="24" y2="9.5"/>
    <line x1="28.95" y1="19.05" x2="34.25" y2="13.75"/>
    <line x1="31" y1="24" x2="38.5" y2="24"/>
    <line x1="28.95" y1="28.95" x2="34.25" y2="34.25"/>
    <line x1="24" y1="31" x2="24" y2="38.5"/>
    <line x1="19.05" y1="28.95" x2="13.75" y2="34.25"/>
    <line x1="17" y1="24" x2="9.5" y2="24"/>
    <line x1="19.05" y1="19.05" x2="13.75" y2="13.75"/>
  </g>
  <g fill="#2B2E33">
    <circle cx="24" cy="9.5" r="1.6"/>
    <circle cx="34.25" cy="13.75" r="1.6"/>
    <circle cx="38.5" cy="24" r="1.6"/>
    <circle cx="34.25" cy="34.25" r="1.6"/>
    <circle cx="24" cy="38.5" r="1.6"/>
    <circle cx="13.75" cy="34.25" r="1.6"/>
    <circle cx="9.5" cy="24" r="1.6"/>
    <circle cx="13.75" cy="13.75" r="1.6"/>
  </g>
  <circle cx="24" cy="24" r="3.75" fill="#E8742C"/>
</svg>
